<?xml version="1.0" encoding="UTF-8"?>
<svg version="1.1" xmlns="http://www.w3.org/2000/svg" width="512" height="512">
<path d="M0 0 C168.96 0 337.92 0 512 0 C512 168.96 512 337.92 512 512 C343.04 512 174.08 512 0 512 C0 343.04 0 174.08 0 0 Z " fill="#FDFDFC" transform="translate(0,0)"/>
<path d="M0 0 C3.76663649 -0.00217935 7.53297579 -0.02038402 11.29956055 -0.03930664 C44.96084309 -0.11848018 81.47092974 1.81615104 112.98510742 14.86499023 C116.9389908 16.47125536 120.95172262 17.85648361 124.98510742 19.24780273 C132.30564356 21.79650582 139.3093664 24.6994993 146.23510742 28.18530273 C146.23510742 28.84530273 146.23510742 29.50530273 146.23510742 30.18530273 C147.08717773 30.43280273 147.93924805 30.68030273 148.81713867 30.93530273 C152.50173699 32.28281298 155.65309872 34.05851713 158.92260742 36.18530273 C159.53056152 36.57830566 160.13851563 36.97130859 160.76489258 37.3762207 C166.8281726 41.40411843 171.97154974 46.16250716 177.23510742 51.18530273 C179.33550914 53.04496074 181.4543361 54.88069696 183.57885742 56.71264648 C184.69794709 57.70768612 185.78158839 58.74383843 186.82885742 59.81420898 C188.20916373 61.2990787 188.20916373 61.2990787 190.23510742 62.18530273 C191.23510742 64.18530273 192.23510742 66.18530273 193.23510742 68.18530273 C194.2459946 69.62981444 195.26762025 71.06684733 196.29760742 72.49780273 C199.37151252 76.98280571 200.38707028 80.84266874 201.23510742 86.18530273 C201.89510742 86.18530273 202.55510742 86.18530273 203.23510742 86.18530273 C203.39946289 87.07282227 203.39946289 87.07282227 203.56713867 87.97827148 C203.8049707 89.16356445 203.8049707 89.16356445 204.04760742 90.37280273 C204.27383789 91.53875977 204.27383789 91.53875977 204.50463867 92.72827148 C205.1176074 95.24838649 205.1176074 95.24838649 206.70385742 97.33374023 C208.97884199 101.57031865 209.32442088 105.89287964 209.92260742 110.62280273 C210.0521582 111.55157227 210.18170898 112.4803418 210.31518555 113.43725586 C210.9459681 118.12640656 211.23510742 122.41201703 211.23510742 127.18530273 C170.31510742 127.18530273 129.39510742 127.18530273 87.23510742 127.18530273 C86.57510742 122.56530273 85.91510742 117.94530273 85.23510742 113.18530273 C84.57510742 111.53530273 83.91510742 109.88530273 83.23510742 108.18530273 C83.23510742 107.19530273 83.23510742 106.20530273 83.23510742 105.18530273 C82.57510742 105.18530273 81.91510742 105.18530273 81.23510742 105.18530273 C79.89109812 103.19246135 78.5596945 101.19110603 77.23510742 99.18530273 C69.62801527 90.68325856 60.60787009 84.75503047 50.23510742 80.18530273 C48.70563477 79.50467773 48.70563477 79.50467773 47.14526367 78.81030273 C28.46403707 71.05147438 -1.1078181 66.86753584 -20.32739258 74.62280273 C-22.02895508 75.39624023 -22.02895508 75.39624023 -23.76489258 76.18530273 C-25.11311952 76.48430468 -26.46828557 76.7529636 -27.82739258 76.99780273 C-38.81143797 79.29939998 -49.47675214 84.60318907 -57.76489258 92.18530273 C-58.46205807 93.50294552 -59.13757164 94.83301184 -59.76489258 96.18530273 C-60.75489258 96.40186523 -60.75489258 96.40186523 -61.76489258 96.62280273 C-62.42489258 96.80842773 -63.08489258 96.99405273 -63.76489258 97.18530273 C-65.01203661 99.59482296 -65.01203661 99.59482296 -65.76489258 102.18530273 C-66.09489258 102.84530273 -66.42489258 103.50530273 -66.76489258 104.18530273 C-67.42489258 104.18530273 -68.08489258 104.18530273 -68.76489258 104.18530273 C-69.58775041 110.5624509 -69.92506978 116.88665205 -70.01489258 123.31030273 C-70.03616211 124.06166504 -70.05743164 124.81302734 -70.0793457 125.5871582 C-70.11330003 131.12777647 -68.82513537 135.05638251 -66.76489258 140.18530273 C-66.76489258 141.50530273 -66.76489258 142.82530273 -66.76489258 144.18530273 C-66.16676758 144.22655273 -65.56864258 144.26780273 -64.95239258 144.31030273 C-61.67098729 145.62286485 -61.26588581 148.0632368 -59.76489258 151.18530273 C-56.23229862 155.36018651 -51.97503855 158.23158798 -47.46020508 161.24389648 C-45.31821078 162.78675325 -43.45398964 164.34312847 -41.50317383 166.10327148 C-37.62212242 169.47890079 -33.40230521 171.75520537 -28.82739258 174.06030273 C-28.0481543 174.46249023 -27.26891602 174.86467773 -26.46606445 175.27905273 C-24.56996855 176.25618191 -22.66802989 177.22195989 -20.76489258 178.18530273 C-20.76489258 178.84530273 -20.76489258 179.50530273 -20.76489258 180.18530273 C-19.5505957 180.56235352 -19.5505957 180.56235352 -18.31176758 180.94702148 C-14.10363076 182.41616176 -10.07865839 184.17291617 -6.01489258 185.99780273 C-5.20995361 186.35817627 -4.40501465 186.7185498 -3.57568359 187.08984375 C2.10612844 189.64743419 7.71201687 192.29914624 13.23510742 195.18530273 C14.57754775 195.87151549 15.91999647 196.55771185 17.26245117 197.24389648 C24.51797129 200.98462345 31.50915856 204.75378683 38.08276367 209.63061523 C40.2319725 211.18303831 42.43720981 212.49136685 44.73510742 213.81030273 C48.04939227 215.81614246 49.08535749 217.42248477 50.23510742 221.18530273 C51.22510742 221.51530273 52.21510742 221.84530273 53.23510742 222.18530273 C53.23510742 222.84530273 53.23510742 223.50530273 53.23510742 224.18530273 C53.83194336 224.43924805 54.4287793 224.69319336 55.04370117 224.95483398 C60.95897788 228.27624604 63.83799019 235.13543543 66.23510742 241.18530273 C67.80111057 243.94146828 69.47626245 246.54703527 71.23510742 249.18530273 C71.9659812 251.72623109 72.62797111 254.24035747 73.23510742 256.81030273 C73.49674683 257.89553223 73.49674683 257.89553223 73.76367188 259.00268555 C74.10665689 260.43106819 74.44699235 261.86009016 74.78442383 263.28979492 C75.14407694 264.80244215 75.52071907 266.31104688 75.90307617 267.81811523 C79.51328895 282.53041091 78.23510742 298.29691758 78.23510742 313.18530273 C40.61510742 313.18530273 2.99510742 313.18530273 -35.76489258 313.18530273 C-35.76489258 305.59530273 -35.76489258 298.00530273 -35.76489258 290.18530273 C-36.42489258 290.18530273 -37.08489258 290.18530273 -37.76489258 290.18530273 C-38.42489258 284.90530273 -39.08489258 279.62530273 -39.76489258 274.18530273 C-40.42489258 274.18530273 -41.08489258 274.18530273 -41.76489258 274.18530273 C-42.43644191 272.89616786 -43.10198117 271.6039007 -43.76489258 270.31030273 C-44.13614258 269.59100586 -44.50739258 268.87170898 -44.88989258 268.13061523 C-45.76489258 266.18530273 -45.76489258 266.18530273 -45.76489258 264.18530273 C-46.42489258 264.18530273 -47.08489258 264.18530273 -47.76489258 264.18530273 C-47.76489258 263.52530273 -47.76489258 262.86530273 -47.76489258 262.18530273 C-48.36817383 261.91717773 -48.97145508 261.64905273 -49.59301758 261.37280273 C-51.80960535 260.16085546 -52.88910225 259.08510267 -54.51489258 257.18530273 C-61.60231186 249.83538644 -71.63194766 244.57367565 -80.76489258 240.18530273 C-80.76489258 239.52530273 -80.76489258 238.86530273 -80.76489258 238.18530273 C-82.62887695 237.59749023 -82.62887695 237.59749023 -84.53051758 236.99780273 C-90.33895279 235.0601415 -95.91117887 232.64370617 -101.51489258 230.18530273 C-102.52938477 229.74702148 -103.54387695 229.30874023 -104.58911133 228.85717773 C-109.17753027 226.85539707 -113.47945251 224.77859989 -117.76489258 222.18530273 C-119.42660943 221.47546285 -121.08893212 220.76690442 -122.75756836 220.07348633 C-126.84541639 218.26473041 -130.75967661 216.09958516 -134.70239258 213.99780273 C-135.57702148 213.53438477 -136.45165039 213.0709668 -137.3527832 212.59350586 C-139.49146809 211.459886 -141.62878624 210.32377173 -143.76489258 209.18530273 C-143.76489258 208.52530273 -143.76489258 207.86530273 -143.76489258 207.18530273 C-144.43262695 206.95713867 -145.10036133 206.72897461 -145.78833008 206.49389648 C-149.62239954 204.80831477 -152.92909192 202.58992662 -156.38989258 200.24780273 C-157.05762695 199.80500977 -157.72536133 199.3622168 -158.41333008 198.90600586 C-164.40901899 194.8828986 -164.40901899 194.8828986 -166.76489258 192.18530273 C-166.76489258 191.52530273 -166.76489258 190.86530273 -166.76489258 190.18530273 C-167.50223633 189.93522461 -168.23958008 189.68514648 -168.99926758 189.42749023 C-181.43450192 183.84217312 -191.05277048 167.04148128 -195.78833008 154.78686523 C-196.1105957 153.92834961 -196.43286133 153.06983398 -196.76489258 152.18530273 C-197.0459082 151.45053711 -197.32692383 150.71577148 -197.61645508 149.95874023 C-203.08903404 134.757132 -202.6186087 118.96387166 -200.51489258 103.18530273 C-200.35114136 101.89571655 -200.35114136 101.89571655 -200.18408203 100.58007812 C-199.41237285 95.35725161 -198.02728842 90.95279205 -195.72485352 86.19921875 C-194.77432622 84.20509371 -194.00142209 82.20422923 -193.26489258 80.12280273 C-191.32720005 74.82856085 -188.89194255 69.87587769 -185.76489258 65.18530273 C-185.10489258 65.18530273 -184.44489258 65.18530273 -183.76489258 65.18530273 C-183.43489258 63.86530273 -183.10489258 62.54530273 -182.76489258 61.18530273 C-182.10489258 61.18530273 -181.44489258 61.18530273 -180.76489258 61.18530273 C-180.52512695 60.62198242 -180.28536133 60.05866211 -180.03833008 59.47827148 C-165.97199821 34.15024447 -124.9025129 19.21010041 -99.00512695 11.34741211 C-87.75856294 8.1830114 -76.30804274 5.94277115 -64.76489258 4.18530273 C-63.48461182 3.98807617 -63.48461182 3.98807617 -62.1784668 3.78686523 C-59.39653068 3.3649225 -56.61266625 2.95958852 -53.82739258 2.56030273 C-52.99481934 2.43703613 -52.16224609 2.31376953 -51.30444336 2.18676758 C-34.30994057 -0.15050188 -17.11750622 -0.00110371 0 0 Z " fill="#FCA867" transform="translate(253.764892578125,38.814697265625)"/>
<path d="M0 0 C0 0.66 0 1.32 0 2 C0.58265625 2.12375 1.1653125 2.2475 1.765625 2.375 C14.26813003 5.52028428 25.92014225 14.17198226 33 25 C33.6408587 27.68084404 33.7698714 30.23845677 34 33 C34.66 33 35.32 33 36 33 C37.79463979 44.44082866 37.80569659 54.29445269 33 65 C32.34 65 31.68 65 31 65 C30.90332031 65.57234375 30.80664062 66.1446875 30.70703125 66.734375 C27.92960198 75.63442459 17.62075313 81.67750131 10 86 C-0.85659278 91.3567859 -0.85659278 91.3567859 -7 91 C-7 91.66 -7 92.32 -7 93 C-16.88258912 95.59451209 -26.02344895 96.4772629 -36.18579102 96.39111328 C-38.43242293 96.37503633 -40.67725032 96.39105728 -42.92382812 96.41015625 C-56.66049032 96.43035128 -69.20302381 94.2411732 -82 89 C-82 88.34 -82 87.68 -82 87 C-83.423125 86.7215625 -83.423125 86.7215625 -84.875 86.4375 C-93.56833971 83.96378545 -102.21650762 76.55288271 -107 69 C-107 68.01 -107 67.02 -107 66 C-107.66 66 -108.32 66 -109 66 C-114.97771821 55.49629515 -114.5226879 45.75467011 -114 34 C-113.34 34 -112.68 34 -112 34 C-111.896875 33.319375 -111.79375 32.63875 -111.6875 31.9375 C-110.85274981 28.37084011 -109.50527246 25.33777806 -108 22 C-107.34 22 -106.68 22 -106 22 C-105.73316406 21.40960938 -105.46632812 20.81921875 -105.19140625 20.2109375 C-101.59594445 13.53870348 -94.5603055 8.51784498 -88 5 C-84.4375 4.125 -84.4375 4.125 -82 4 C-82 3.34 -82 2.68 -82 2 C-57.58518154 -8.19008313 -25.02352036 -8.8681197 0 0 Z " fill="#FCA868" transform="translate(313,399)"/>
<path d="M0 0 C0.5625 1.9375 0.5625 1.9375 1 4 C0.67 4.33 0.34 4.66 0 5 C-3.14862369 18.82785396 -3.38568853 32.90094149 -3 47 C-3.66 47 -4.32 47 -5 47 C-5 36.11 -5 25.22 -5 14 C-4.34 14 -3.68 14 -3 14 C-2.67 10.37 -2.34 6.74 -2 3 C-1.34 3 -0.68 3 0 3 C0 2.01 0 1.02 0 0 Z " fill="#FDDBC1" transform="translate(56,127)"/>
<path d="M0 0 C0.66 0.33 1.32 0.66 2 1 C-2.95 5.95 -7.9 10.9 -13 16 C-13.99 15.67 -14.98 15.34 -16 15 C-5.62642369 4.44191344 -5.62642369 4.44191344 0 0 Z " fill="#FCBB8A" transform="translate(91,81)"/>
<path d="M0 0 C0.66 0.33 1.32 0.66 2 1 C0.89718873 2.27200971 -0.20730769 3.54255853 -1.3125 4.8125 C-1.92738281 5.52019531 -2.54226562 6.22789062 -3.17578125 6.95703125 C-6.44911047 10.6228796 -6.44911047 10.6228796 -8 12 C-8.66 12 -9.32 12 -10 12 C-10.33 12.99 -10.66 13.98 -11 15 C-11.33 14.34 -11.66 13.68 -12 13 C-11.67 12.34 -11.34 11.68 -11 11 C-10.34 11 -9.68 11 -9 11 C-8.61714844 10.12601562 -8.61714844 10.12601562 -8.2265625 9.234375 C-6.88258913 6.78611777 -5.38189704 5.18256752 -3.375 3.25 C-2.74335938 2.63640625 -2.11171875 2.0228125 -1.4609375 1.390625 C-0.73777344 0.70226562 -0.73777344 0.70226562 0 0 Z " fill="#FCBC8C" transform="translate(216,410)"/>
<path d="M0 0 C1.53445094 3.06890187 0.54984289 5.70094266 0 9 C-0.66 9 -1.32 9 -2 9 C-2 14.28 -2 19.56 -2 25 C-2.33 25 -2.66 25 -3 25 C-3 18.4 -3 11.8 -3 5 C-2.34 5 -1.68 5 -1 5 C-0.67 3.35 -0.34 1.7 0 0 Z " fill="#FDD2B1" transform="translate(202,428)"/>
<path d="M0 0 C0.99 0.495 0.99 0.495 2 1 C2 1.99 2 2.98 2 4 C2.66 4 3.32 4 4 4 C4.33 5.98 4.66 7.96 5 10 C4.34 9.67 3.68 9.34 3 9 C3 8.34 3 7.68 3 7 C2.34 7 1.68 7 1 7 C0.67 4.69 0.34 2.38 0 0 Z " fill="#FDD3B4" transform="translate(210,309)"/>
</svg>
